<?xml version="1.0" standalone="no"?>
<!DOCTYPE svg PUBLIC "-//W3C//DTD SVG 20010904//EN"
 "http://www.w3.org/TR/2001/REC-SVG-20010904/DTD/svg10.dtd">
<svg version="1.0" xmlns="http://www.w3.org/2000/svg"
 width="1212.000000pt" height="1188.000000pt" viewBox="0 0 1212.000000 1188.000000"
 preserveAspectRatio="xMidYMid meet">

<g transform="translate(0.000000,1188.000000) scale(0.100000,-0.100000)"
fill="#000000" stroke="none">
<path d="M5885 11549 c-1229 -45 -2442 -522 -3395 -1335 -151 -128 -470 -448
-599 -599 -691 -808 -1145 -1810 -1290 -2845 -50 -360 -67 -855 -41 -1195 90
-1175 533 -2265 1290 -3175 133 -159 519 -546 675 -676 410 -341 837 -610
1295 -817 951 -429 1988 -582 3027 -447 779 102 1547 378 2217 797 528 330
1028 778 1419 1270 1214 1530 1536 3573 851 5411 -220 589 -536 1129 -958
1637 -130 156 -517 543 -676 675 -361 301 -740 545 -1155 746 -840 406 -1712
587 -2660 553z m709 -45 c919 -77 1785 -377 2563 -886 142 -93 185 -130 145
-123 -26 4 -38 -8 -16 -15 25 -9 56 -1 47 13 -4 6 -1 7 6 2 9 -5 7 -13 -10
-31 -23 -24 -59 -33 -59 -14 0 6 -4 10 -10 10 -5 0 -7 -6 -4 -14 3 -8 0 -17
-5 -21 -6 -3 -8 -12 -4 -18 3 -7 -3 -4 -15 6 -11 11 -26 16 -32 12 -6 -3 -10
-3 -9 2 1 4 -2 18 -6 29 -8 24 -51 30 -59 8 -4 -10 1 -11 21 -3 21 8 24 7 19
-6 -3 -9 -2 -13 4 -10 6 3 10 1 10 -4 0 -6 -2 -11 -4 -11 -2 0 -12 -3 -20 -6
-12 -5 -15 -2 -10 10 3 9 1 16 -5 16 -6 0 -11 -6 -11 -12 0 -7 -5 -5 -11 6 -8
13 -8 25 2 42 7 13 9 27 6 31 -4 3 -7 -1 -7 -11 0 -10 -5 -14 -12 -10 -6 4 -8
3 -5 -3 4 -6 0 -16 -8 -23 -18 -15 -20 -31 -4 -28 6 2 14 -3 16 -10 4 -11 1
-12 -16 -3 -20 11 -26 8 -21 -14 1 -5 -2 -7 -6 -2 -4 4 -9 18 -11 30 -2 17 -1
19 7 7 8 -12 10 -11 10 8 0 12 -6 22 -12 22 -10 0 -9 3 1 9 9 6 10 11 2 15
-12 8 -13 7 -16 -44 -4 -53 -6 -57 -14 -31 -4 14 -13 27 -21 29 -12 4 -13 2
-3 -10 11 -12 9 -14 -7 -13 -11 1 -28 9 -39 19 -18 17 -20 17 -31 -1 -9 -15
-10 -12 -6 16 7 39 2 37 -23 -10 -18 -34 -46 -54 -35 -25 4 10 0 18 -10 22 -9
3 -13 10 -10 15 3 5 0 9 -6 9 -6 0 -8 5 -5 10 10 16 -16 7 -41 -14 -22 -18
-24 -43 -3 -30 5 3 7 10 4 15 -10 15 8 10 34 -10 l24 -19 -39 3 c-21 2 -45 4
-52 4 -6 1 -11 4 -11 9 1 4 1 14 0 22 -1 11 -4 10 -13 -4 -9 -15 -7 -22 6 -32
11 -8 13 -14 7 -19 -6 -3 -11 -2 -11 3 0 4 -16 8 -35 7 -19 -1 -40 4 -46 11
-8 10 -5 12 13 10 13 -1 29 -6 36 -10 7 -4 12 -1 12 8 0 10 -7 13 -21 11 -16
-3 -18 -1 -10 9 8 9 7 13 -4 13 -8 0 -15 -4 -15 -9 0 -4 -8 -8 -17 -7 -13 0
-14 2 -4 6 10 4 10 7 1 13 -8 5 -7 11 5 24 15 15 15 16 -5 16 -14 0 -19 -4
-14 -12 5 -7 2 -9 -9 -5 -11 4 -14 2 -10 -9 3 -7 8 -14 12 -14 4 0 7 -11 7
-25 0 -14 -4 -25 -8 -25 -7 0 -12 14 -10 31 1 3 -11 12 -26 18 -25 12 -26 12
-11 -6 36 -41 36 -60 0 -22 -12 13 -26 19 -35 16 -24 -9 -45 3 -40 21 5 15 4
15 -6 0 -13 -21 -35 -24 -27 -5 3 8 -1 14 -8 14 -15 0 -15 -18 0 -29 5 -4 0
-6 -13 -5 -12 0 -22 5 -22 9 0 4 -6 5 -13 2 -7 -2 -13 -13 -13 -24 0 -15 3
-16 14 -8 10 9 12 8 10 -2 -2 -8 5 -14 16 -15 11 0 21 -5 23 -12 5 -13 -37 -4
-76 16 -12 7 -26 9 -31 6 -6 -3 -15 6 -21 22 -8 21 -12 24 -19 13 -5 -9 -5
-17 1 -20 5 -4 3 -14 -4 -25 -11 -14 -16 -15 -22 -5 -6 9 -4 11 6 5 12 -7 12
-6 0 6 -10 11 -15 11 -18 2 -6 -18 -21 -16 -19 1 0 8 -3 15 -9 16 -5 1 -14 5
-20 10 -5 4 -25 7 -42 5 -18 -1 -33 2 -33 6 0 4 -6 9 -13 12 -8 3 -14 -1 -14
-9 0 -7 4 -11 9 -8 4 3 8 -5 8 -17 0 -21 -1 -21 -18 -6 -10 10 -24 17 -31 17
-8 0 -11 6 -7 15 5 13 2 14 -17 4 -21 -12 -21 -11 -7 6 14 17 14 18 -8 6 -16
-8 -27 -9 -35 -3 -7 6 -16 11 -22 12 -15 4 -20 5 -135 48 -436 164 -833 255
-1320 304 -164 16 -697 16 -865 0 -284 -29 -569 -79 -815 -143 -207 -55 -599
-190 -683 -235 -15 -8 -32 -12 -39 -8 -6 4 -18 -2 -26 -12 -14 -18 -14 -18 -9
4 4 16 -1 25 -15 33 -16 9 -19 8 -15 -3 2 -7 11 -12 18 -10 9 1 8 -3 -3 -11
-19 -15 -25 -33 -8 -22 6 3 10 1 10 -4 0 -9 -26 -14 -56 -10 -3 0 -12 -8 -20
-18 -14 -17 -14 -16 -4 5 9 18 8 22 -5 22 -8 0 -15 -7 -15 -15 0 -22 -21 -18
-27 5 -3 10 -14 22 -24 25 -11 4 -16 11 -13 17 4 7 2 8 -5 4 -6 -4 -9 -11 -6
-16 8 -14 -30 -18 -43 -4 -9 10 -8 15 5 23 10 5 16 12 13 14 -3 3 -18 -6 -35
-19 -16 -14 -23 -22 -14 -19 11 4 18 -1 22 -15 3 -12 10 -19 16 -16 5 4 13 1
17 -6 4 -7 4 -10 -1 -6 -4 4 -14 3 -22 -3 -10 -9 -13 -8 -13 5 0 9 -6 16 -14
16 -7 0 -19 7 -26 15 -7 8 -16 12 -21 9 -5 -3 -9 0 -9 6 0 8 -7 9 -17 5 -10
-4 -24 -8 -31 -9 -7 -1 -18 -8 -25 -16 -10 -12 -9 -12 6 -1 14 11 17 11 17 -3
0 -9 -4 -16 -9 -16 -5 0 -17 -3 -26 -6 -13 -5 -15 -1 -11 22 3 16 1 36 -4 44
-6 9 -10 10 -10 3 0 -7 -6 -11 -12 -9 -7 1 -10 1 -6 -1 4 -2 4 -12 1 -21 -5
-14 -4 -14 9 1 13 18 14 17 14 -2 0 -24 -24 -28 -32 -6 -4 8 -10 12 -15 9 -12
-7 -11 3 2 28 7 13 7 18 1 14 -6 -3 -13 -2 -17 4 -9 15 -25 2 -25 -21 0 -13
-7 -19 -21 -19 -11 0 -17 5 -14 10 3 6 1 10 -5 10 -7 0 -9 -8 -5 -20 8 -26 -7
-26 -23 0 -16 27 -32 17 -28 -18 2 -15 1 -21 -1 -14 -2 6 -9 12 -15 12 -5 0
-8 -7 -4 -15 5 -13 2 -13 -18 0 -21 14 -25 14 -39 1 -13 -13 -16 -13 -20 -1
-3 7 -1 15 5 17 7 3 9 12 5 22 -5 13 -11 15 -26 7 -10 -6 -21 -7 -25 -3 -4 3
-11 0 -16 -8 -8 -13 -11 -13 -22 -1 -11 11 -11 13 1 6 9 -5 12 -4 7 3 -4 7
-14 12 -22 12 -8 0 -13 -4 -10 -9 3 -5 -1 -12 -10 -15 -8 -3 -12 -2 -9 4 3 6
1 10 -5 10 -7 0 -9 8 -5 19 3 11 0 23 -6 27 -8 5 -9 3 -4 -6 5 -9 2 -10 -14
-5 -12 4 -21 2 -21 -4 0 -6 6 -10 13 -9 6 2 11 -5 10 -15 0 -10 2 -16 5 -13 3
3 11 -3 19 -13 8 -12 20 -17 33 -14 11 3 20 0 20 -6 0 -5 -6 -8 -14 -5 -11 4
-13 -1 -10 -18 l5 -23 -13 23 c-8 17 -18 22 -35 19 -16 -3 -20 -1 -14 7 6 7 4
16 -4 23 -9 8 -16 9 -20 3 -3 -6 -3 -10 2 -10 4 0 8 -10 8 -23 0 -18 -6 -23
-29 -24 -19 0 -24 2 -15 7 7 5 16 7 20 4 12 -7 1 38 -12 50 -8 8 -8 5 0 -12
11 -20 9 -23 -14 -32 -38 -14 -45 -13 -45 10 0 11 -4 20 -9 20 -5 0 -7 -8 -4
-19 3 -14 -2 -20 -21 -23 -13 -3 -31 -1 -38 4 -10 7 -8 8 5 4 15 -5 22 8 18
36 0 4 5 5 12 3 6 -3 19 -1 27 5 12 7 12 12 2 22 -9 9 -12 8 -12 -6 0 -12 -5
-16 -14 -13 -15 6 -40 -16 -30 -26 3 -3 -3 -3 -14 0 -13 3 -25 -3 -36 -18 -9
-13 -16 -17 -16 -10 0 7 -6 11 -14 8 -10 -4 -13 3 -12 23 1 16 5 32 10 37 5 4
6 3 2 -4 -10 -17 28 -35 54 -25 21 8 21 9 4 23 -11 8 -15 9 -10 2 10 -18 -19
-16 -34 2 -7 8 -16 12 -21 9 -5 -3 -9 0 -9 5 0 6 -5 11 -11 11 -8 0 -7 -5 1
-16 11 -13 10 -16 -8 -21 -12 -3 -19 -9 -16 -14 3 -5 -5 -5 -18 0 -13 4 -23
13 -23 19 0 6 -3 14 -7 18 -4 3 -5 -3 -3 -16 2 -12 12 -28 21 -35 9 -6 14 -18
11 -26 -4 -10 -6 -9 -6 4 -1 9 -8 17 -16 17 -8 0 -15 5 -15 10 0 17 -28 11
-39 -7 -8 -14 -12 -15 -19 -5 -7 10 -11 10 -22 -3 -7 -8 -17 -15 -23 -15 -12
0 31 34 58 45 11 4 23 7 28 7 4 -1 6 3 5 9 -4 15 216 166 407 280 83 50 254
142 380 204 714 353 1446 536 2270 569 137 5 473 -5 649 -20z m-229 -664 c910
-50 1733 -326 2480 -830 399 -270 776 -620 1087 -1010 974 -1220 1293 -2857
855 -4380 -411 -1426 -1496 -2615 -2887 -3163 -605 -239 -1244 -351 -1900
-334 -259 7 -389 18 -620 53 -896 136 -1696 500 -2410 1098 -125 104 -387 363
-509 502 -966 1101 -1384 2574 -1140 4019 151 898 544 1721 1151 2411 191 219
487 491 734 677 895 672 2038 1019 3159 957z m-2738 -362 c-3 -8 -6 -5 -6 6
-1 11 2 17 5 13 3 -3 4 -12 1 -19z m4897 -34 c6 -17 27 -19 24 -3 -2 6 3 14
10 16 7 3 10 -1 6 -10 -6 -17 23 -50 37 -42 5 4 9 1 9 -5 0 -15 -32 -8 -46 10
-10 12 -14 12 -29 0 -14 -12 -18 -12 -26 1 -5 8 -7 20 -4 26 2 7 1 12 -3 12
-16 -3 -23 2 -17 11 7 12 32 2 39 -16z m866 11 c8 -9 8 -15 2 -15 -6 0 -9 -12
-6 -27 3 -15 2 -25 -1 -21 -4 3 -8 14 -9 24 -4 24 -26 30 -27 7 0 -16 -1 -16
-9 2 -13 30 -12 38 5 31 8 -3 15 -1 15 4 0 15 16 12 30 -5z m-5850 -5 c0 -5
-2 -10 -4 -10 -3 0 -8 5 -11 10 -3 6 -1 10 4 10 6 0 11 -4 11 -10z m260 -24
c0 -5 -3 -6 -7 -3 -3 4 -12 2 -20 -4 -11 -10 -11 -15 -1 -28 11 -14 11 -14 -4
-3 -17 13 -14 42 3 42 5 0 9 8 9 18 0 14 2 15 10 2 5 -8 10 -19 10 -24z m4398
21 c6 -7 7 -19 3 -26 -6 -9 -10 -6 -15 11 -5 19 -8 20 -16 8 -5 -8 -10 -10
-10 -4 0 24 22 31 38 11z m57 1 c4 4 0 -6 -10 -21 -19 -30 -37 -21 -28 14 4
14 9 17 18 9 6 -5 15 -6 20 -2z m693 0 c-5 -14 10 -32 31 -39 10 -4 10 -8 -3
-19 -15 -11 -17 -11 -14 0 2 8 -4 14 -12 15 -13 0 -16 10 -11 45 0 6 4 10 7
10 3 0 4 -6 2 -12z m-5351 -18 c1 -11 -2 -22 -6 -25 -5 -2 -8 7 -8 20 0 30 12
34 14 5z m260 -25 c0 -14 -44 -18 -52 -5 -3 5 0 7 8 4 8 -3 14 2 14 11 0 8 -4
15 -9 15 -4 0 -8 5 -8 10 0 6 11 3 23 -7 13 -9 24 -22 24 -28z m88 17 c-18 -4
-20 -19 -2 -25 7 -3 5 -6 -5 -6 -21 -1 -23 12 -7 41 9 17 13 18 20 7 6 -9 4
-15 -6 -17z m4975 4 c0 -8 -7 -19 -15 -26 -10 -9 -15 -9 -15 -1 0 6 4 11 9 11
5 0 7 10 3 22 -3 14 -2 19 6 14 7 -4 12 -13 12 -20z m-6015 -14 c-6 -7 -34 11
-29 19 3 5 11 3 19 -4 7 -6 12 -13 10 -15z m745 7 c0 -10 6 -19 13 -22 7 -2 8
-8 3 -13 -5 -5 -11 -3 -14 5 -2 7 -13 22 -23 32 -17 17 -17 18 2 16 11 -1 19
-9 19 -18z m4840 11 c0 -5 -2 -10 -4 -10 -3 0 -8 5 -11 10 -3 6 -1 10 4 10 6
0 11 -4 11 -10z m-5530 -31 c-6 -10 -13 -19 -16 -19 -2 0 0 8 5 19 6 10 7 22
3 26 -4 5 -1 5 6 1 9 -5 9 -12 2 -27z m600 27 c0 -2 -7 -7 -16 -10 -8 -3 -12
-2 -9 4 6 10 25 14 25 6z m5724 -10 c-10 -8 -21 -12 -24 -10 -5 6 21 24 34 24
6 0 1 -6 -10 -14z m-5994 -6 c0 -5 -5 -10 -11 -10 -5 0 -7 5 -4 10 3 6 8 10
11 10 2 0 4 -4 4 -10z m115 -8 c-3 -3 -11 0 -18 7 -9 10 -8 11 6 5 10 -3 15
-9 12 -12z m282 -4 c-3 -8 -6 -5 -6 6 -1 11 2 17 5 13 3 -3 4 -12 1 -19z
m5113 18 c0 -2 -9 -6 -20 -9 -11 -3 -18 -1 -14 4 5 9 34 13 34 5z m-5735 -16
c3 -6 -1 -7 -9 -4 -18 7 -21 14 -7 14 6 0 13 -4 16 -10z m501 -2 c4 -7 3 -8
-4 -4 -7 4 -12 2 -12 -4 0 -6 -5 -8 -11 -4 -8 4 -7 9 2 15 18 11 17 11 25 -3z
m4694 2 c0 -5 -5 -10 -11 -10 -5 0 -7 5 -4 10 3 6 8 10 11 10 2 0 4 -4 4 -10z
m430 -5 c0 -8 -4 -15 -10 -15 -5 0 -7 7 -4 15 4 8 8 15 10 15 2 0 4 -7 4 -15z
m185 5 c3 -6 -1 -7 -9 -4 -18 7 -21 14 -7 14 6 0 13 -4 16 -10z m-435 -6 c0
-8 -19 -13 -24 -6 -3 5 1 9 9 9 8 0 15 -2 15 -3z m387 0 c-3 -3 -12 -4 -19 -1
-8 3 -5 6 6 6 11 1 17 -2 13 -5z m243 -4 c0 -5 -7 -7 -15 -4 -8 4 -15 8 -15
10 0 2 7 4 15 4 8 0 15 -4 15 -10z m287 4 c-3 -3 -12 -4 -19 -1 -8 3 -5 6 6 6
11 1 17 -2 13 -5z"/>
<path d="M3160 10509 c0 -5 -5 -7 -11 -3 -8 4 -8 0 0 -15 12 -21 22 -28 20
-13 -4 25 2 34 15 23 11 -9 16 -9 22 0 4 7 3 9 -4 5 -6 -3 -13 -2 -17 4 -8 13
-25 13 -25 -1z"/>
<path d="M3745 10509 c-4 -6 -5 -12 -2 -15 2 -3 7 2 10 11 7 17 1 20 -8 4z"/>
<path d="M3794 10504 c-18 -14 -18 -15 4 -4 12 6 22 13 22 15 0 8 -5 6 -26
-11z"/>
<path d="M3221 10494 c0 -11 3 -14 6 -6 3 7 2 16 -1 19 -3 4 -6 -2 -5 -13z"/>
<path d="M3410 10500 c-9 -6 -10 -10 -3 -10 6 0 15 5 18 10 8 12 4 12 -15 0z"/>
<path d="M3833 10503 c4 -3 1 -13 -6 -22 -11 -14 -10 -14 5 -2 16 12 16 31 1
31 -4 0 -3 -3 0 -7z"/>
<path d="M3987 10497 c-3 -8 1 -14 9 -14 16 0 19 13 5 21 -5 3 -11 0 -14 -7z"/>
<path d="M8097 10501 c6 -3 13 -13 16 -21 4 -12 6 -12 6 2 1 9 7 18 14 21 6 2
-1 4 -17 4 -15 0 -24 -2 -19 -6z"/>
<path d="M8333 10504 c9 -3 15 -10 12 -15 -4 -5 -1 -9 5 -9 19 0 5 25 -16 27
-16 2 -16 1 -1 -3z"/>
<path d="M3081 10484 c0 -11 3 -14 6 -6 3 7 2 16 -1 19 -3 4 -6 -2 -5 -13z"/>
<path d="M3440 10496 c0 -2 7 -7 16 -10 8 -3 12 -2 9 4 -6 10 -25 14 -25 6z"/>
<path d="M8230 10491 c0 -6 4 -12 8 -15 5 -3 9 1 9 9 0 8 -4 15 -9 15 -4 0 -8
-4 -8 -9z"/>
<path d="M8277 10486 c-15 -12 -16 -15 -2 -26 13 -11 14 -10 8 5 -5 14 -3 17
10 12 11 -4 14 -2 10 9 -3 7 -6 14 -7 14 0 0 -9 -7 -19 -14z"/>
<path d="M8717 10483 c3 -7 6 -13 8 -13 2 0 5 6 8 13 3 8 -1 14 -8 14 -7 0
-11 -6 -8 -14z"/>
<path d="M9010 10490 c0 -5 5 -10 11 -10 5 0 7 5 4 10 -3 6 -8 10 -11 10 -2 0
-4 -4 -4 -10z"/>
<path d="M9200 10495 c-10 -34 0 -55 28 -55 14 0 17 36 3 45 -6 3 -8 -4 -6
-15 2 -11 0 -20 -5 -20 -5 0 -11 12 -13 28 -2 15 -5 23 -7 17z"/>
<path d="M3721 10474 c0 -11 3 -14 6 -6 3 7 2 16 -1 19 -3 4 -6 -2 -5 -13z"/>
<path d="M4156 10478 c3 -5 10 -6 15 -3 13 9 11 12 -6 12 -8 0 -12 -4 -9 -9z"/>
<path d="M8861 10479 c-1 -21 8 -29 25 -22 16 6 19 33 3 33 -5 0 -7 -4 -4 -10
3 -5 2 -10 -4 -10 -5 0 -12 6 -14 13 -4 8 -6 6 -6 -4z"/>
<path d="M8990 10482 c0 -7 -7 -9 -17 -5 -15 5 -16 3 -5 -8 9 -10 15 -10 24
-1 6 6 9 15 5 19 -4 3 -7 1 -7 -5z"/>
<path d="M3471 10466 c-8 -10 -9 -16 -1 -21 5 -3 10 -5 11 -3 4 18 7 38 4 38
-1 0 -8 -6 -14 -14z"/>
<path d="M3173 10463 c-19 -7 -16 -20 7 -26 21 -5 25 0 12 19 -4 6 -13 9 -19
7z"/>
<path d="M3994 10458 c-4 -7 -3 -8 4 -4 6 4 21 2 33 -4 22 -12 51 2 35 17 -4
4 -10 2 -14 -4 -5 -8 -13 -9 -22 -3 -20 13 -27 12 -36 -2z"/>
<path d="M8380 10450 c0 -5 5 -10 11 -10 5 0 7 5 4 10 -3 6 -8 10 -11 10 -2 0
-4 -4 -4 -10z"/>
<path d="M3110 10429 c0 -5 5 -7 10 -4 6 3 10 8 10 11 0 2 -4 4 -10 4 -5 0
-10 -5 -10 -11z"/>
<path d="M6912 8197 c-9 -11 -11 -395 -10 -1633 l3 -1619 383 -3 382 -2 0 724
c0 399 3 727 8 729 4 3 138 -150 297 -340 l290 -344 50 3 50 3 290 343 290
343 5 -728 5 -728 385 0 385 0 3 1622 c2 1612 2 1622 -18 1633 -12 6 -69 9
-142 8 l-123 -3 -558 -690 c-307 -379 -562 -691 -567 -693 -5 -2 -865 1048
-1128 1378 -2 3 -63 6 -136 8 -105 3 -135 1 -144 -11z m834 -707 c313 -385
571 -700 574 -700 3 0 259 315 570 700 l565 699 133 1 132 0 0 -1620 0 -1620
-375 0 -375 0 -2 745 -3 746 -304 -361 -304 -360 -41 1 -41 0 -300 359 c-165
198 -303 359 -307 360 -4 0 -9 -41 -10 -90 l-3 -90 -367 725 -368 725 0 240 0
240 129 0 129 0 568 -700z"/>
<path d="M2993 8193 c-10 -4 -13 -89 -13 -379 l0 -374 210 0 211 0 -3 -757
c-4 -858 0 -819 -83 -911 -70 -78 -124 -97 -270 -97 -102 0 -127 3 -167 22
-67 30 -141 104 -169 166 -23 49 -24 66 -29 317 l-5 265 -355 0 -355 0 -3
-268 c-3 -297 8 -401 54 -547 126 -402 434 -662 855 -724 249 -37 488 -2 704
104 293 142 484 388 572 740 15 58 17 192 20 1249 3 955 1 1186 -9 1193 -14 8
-1144 10 -1165 1z"/>
<path d="M5353 8193 c-10 -4 -13 -89 -13 -379 l0 -374 210 0 211 0 -3 -757
c-4 -858 0 -819 -83 -911 -70 -78 -124 -97 -270 -97 -102 0 -127 3 -167 22
-67 30 -141 104 -169 166 -23 49 -24 66 -29 317 l-5 265 -355 0 -355 0 -3
-268 c-3 -297 8 -401 54 -547 126 -402 434 -662 855 -724 249 -37 488 -2 704
104 293 142 484 388 572 740 15 58 17 192 20 1249 3 955 1 1186 -9 1193 -14 8
-1144 10 -1165 1z"/>
<path d="M5617 3840 c-16 -18 -17 -58 -17 -461 0 -372 2 -443 15 -455 12 -12
130 -14 834 -14 766 0 822 1 841 17 20 17 20 27 20 453 l0 436 -30 22 -29 22
-808 0 c-798 0 -809 0 -826 -20z m321 -422 l2 -167 93 -3 92 -3 0 -35 0 -35
-137 -3 -138 -3 0 211 0 211 43 -3 42 -3 3 -167z m337 -38 l0 -205 -42 -3 -43
-3 0 204 c0 112 3 207 7 211 4 4 23 6 43 4 l35 -3 0 -205z m152 198 c12 -20
83 -241 83 -260 0 -50 20 -13 55 100 49 163 54 172 106 172 40 0 41 -1 36 -27
-2 -16 -28 -93 -56 -173 -29 -80 -58 -161 -64 -180 -11 -32 -15 -35 -58 -38
-29 -2 -50 2 -56 10 -6 7 -24 54 -41 103 -17 50 -47 135 -66 189 -20 54 -33
103 -30 107 8 14 82 11 91 -3z m618 -28 l0 -35 -92 -3 -93 -3 0 -44 0 -44 88
-3 87 -3 3 -29 c5 -40 -11 -47 -98 -45 l-75 2 -3 -46 -3 -46 93 -3 93 -3 0
-35 0 -35 -137 -3 c-118 -2 -138 0 -138 13 -1 8 -1 96 -1 195 0 99 0 187 1
195 0 13 20 15 138 13 l137 -3 0 -35z"/>
<path d="M4970 3840 c-8 -5 -27 -10 -43 -10 -15 0 -60 -16 -101 -36 -158 -76
-259 -238 -258 -414 0 -70 10 -126 28 -167 8 -17 14 -36 14 -42 0 -6 3 -11 8
-11 4 0 13 -12 19 -27 33 -75 185 -187 275 -203 l38 -7 0 153 0 154 -59 0
c-67 0 -71 4 -71 80 0 76 4 80 71 80 l59 0 0 73 c0 88 23 143 76 183 32 25 48
29 115 33 109 4 121 -4 117 -82 l-3 -62 -52 -5 c-29 -3 -58 -11 -65 -18 -7 -7
-12 -36 -13 -65 l0 -52 60 -3 c33 -2 64 -7 68 -11 4 -4 3 -28 -2 -52 -6 -24
-13 -56 -16 -71 -5 -25 -10 -27 -58 -30 l-52 -3 0 -145 0 -145 24 -3 c28 -4
89 21 146 59 101 68 171 172 200 295 24 103 17 156 -34 284 -50 123 -187 236
-320 263 -76 15 -155 18 -171 7z"/>
<path d="M8515 10420 c3 -5 8 -10 11 -10 2 0 4 5 4 10 0 6 -5 10 -11 10 -5 0
-7 -4 -4 -10z"/>
</g>
</svg>
